<svg xmlns="http://www.w3.org/2000/svg" width="9.948" height="11.369" viewBox="0 0 9.948 11.369">
  <path id="solid_calendar-day" data-name="solid calendar-day" d="M0,10.3a1.066,1.066,0,0,0,1.066,1.066H8.882A1.066,1.066,0,0,0,9.948,10.3V4.263H0ZM1.421,6.04a.356.356,0,0,1,.355-.355H3.908a.356.356,0,0,1,.355.355V8.171a.356.356,0,0,1-.355.355H1.776a.356.356,0,0,1-.355-.355ZM8.882,1.421H7.816V.355A.356.356,0,0,0,7.461,0H6.75a.356.356,0,0,0-.355.355V1.421H3.553V.355A.356.356,0,0,0,3.2,0H2.487a.356.356,0,0,0-.355.355V1.421H1.066A1.066,1.066,0,0,0,0,2.487V3.553H9.948V2.487A1.066,1.066,0,0,0,8.882,1.421Z" fill="#b8b8b8"/>
</svg>
