<svg xmlns="http://www.w3.org/2000/svg" width="16" height="12.501" viewBox="0 0 16 12.501">
  <path id="solid_exchange-alt" data-name="solid exchange-alt" d="M0,59.477v-.5a.75.75,0,0,1,.75-.75H12v-1.5a.751.751,0,0,1,1.28-.53l2.5,2.5a.75.75,0,0,1,0,1.061l-2.5,2.5a.751.751,0,0,1-1.28-.53v-1.5H.75A.75.75,0,0,1,0,59.477Zm15.25,4.75H4v-1.5a.751.751,0,0,0-1.28-.53L.22,64.7a.75.75,0,0,0,0,1.061l2.5,2.5A.75.75,0,0,0,4,67.727v-1.5H15.25a.75.75,0,0,0,.75-.75v-.5A.75.75,0,0,0,15.25,64.227Z" transform="translate(0 -55.976)" fill="#00726e"/>
</svg>
