<svg id="fridge" xmlns="http://www.w3.org/2000/svg" width="17.635" height="26.453" viewBox="0 0 17.635 26.453">
  <g id="Grupo_7" data-name="Grupo 7" transform="translate(0)">
    <g id="Grupo_6" data-name="Grupo 6">
      <path id="Caminho_4" data-name="Caminho 4" d="M100.764,0H87.537a2.207,2.207,0,0,0-2.2,2.2v4.96a.551.551,0,0,0,.551.551h16.533a.551.551,0,0,0,.551-.551V2.2A2.207,2.207,0,0,0,100.764,0ZM91.4,5.511H88.089a.551.551,0,0,1-.39-.941l.551-.551a.551.551,0,0,1,.941.39h2.2a.551.551,0,1,1,0,1.1Z" transform="translate(-85.333)" fill="#33afaa"/>
      <path id="Caminho_5" data-name="Caminho 5" d="M102.417,170.667H85.884a.551.551,0,0,0-.551.551V185a2.207,2.207,0,0,0,2.2,2.2v.551a.551.551,0,0,0,.551.551h1.1a.551.551,0,0,0,.551-.551V187.2H98.56v.551a.551.551,0,0,0,.551.551h1.1a.551.551,0,0,0,.551-.551V187.2a2.207,2.207,0,0,0,2.2-2.2V171.218A.551.551,0,0,0,102.417,170.667ZM91.4,173.974H88.089a.551.551,0,0,1-.39-.941l.551-.551a.551.551,0,0,1,.941.39h2.2a.551.551,0,1,1,0,1.1Z" transform="translate(-85.333 -161.849)" fill="#33afaa"/>
    </g>
  </g>
</svg>
